Coordinates
version=1
nRows=16
nColumns=63
inDegrees=yes

Units are S.I. units (second, meters, Newtons, ...)
If the header above contains a line with 'inDegrees', this indicates whether rotational values are in degrees (yes) or radians (no).

endheader
time	pelvis_tilt	pelvis_list	pelvis_rotation	pelvis_tx	pelvis_ty	pelvis_tz	hip_flexion_r	hip_adduction_r	hip_rotation_r	knee_angle_r	knee_angle_r_beta	ankle_angle_r	subtalar_angle_r	mtp_angle_r	hip_flexion_l	hip_adduction_l	hip_rotation_l	knee_angle_l	knee_angle_l_beta	ankle_angle_l	subtalar_angle_l	mtp_angle_l	L5_S1_Flex_Ext	L5_S1_Lat_Bending	L5_S1_axial_rotation	L4_L5_Flex_Ext	L4_L5_Lat_Bending	L4_L5_axial_rotation	L3_L4_Flex_Ext	L3_L4_Lat_Bending	L3_L4_axial_rotation	L2_L3_Flex_Ext	L2_L3_Lat_Bending	L2_L3_axial_rotation	L1_L2_Flex_Ext	L1_L2_Lat_Bending	L1_L2_axial_rotation	L1_T12_Flex_Ext	L1_T12_Lat_Bending	L1_T12_axial_rotation	Abs_r3	Abs_r2	Abs_r1	Abs_t1	Abs_t2	neck_flexion	neck_bending	neck_rotation	arm_flex_r	arm_add_r	arm_rot_r	elbow_flex_r	pro_sup_r	wrist_flex_r	wrist_dev_r	arm_flex_l	arm_add_l	arm_rot_l	elbow_flex_l	pro_sup_l	wrist_flex_l	wrist_dev_l
6.750000	-0.319833	-0.970684	92.782076	0.159870	1.030290	0.065219	10.036309	-1.469837	-11.702917	28.067513	0.489871	21.446872	-9.540712	0.000000	5.380012	-2.811248	-14.186952	20.485642	0.357542	23.167692	18.035831	0.000000	-0.262091	0.654409	-0.865595	-0.486729	0.870365	-0.919695	-0.430589	1.591131	-0.919695	-0.299544	1.591131	-0.757396	-0.243378	1.334472	-0.703296	-0.149759	1.013680	-0.649196	-1.872090	7.402810	-4.814181	0.000000	0.000000	6.288865	-18.324372	40.160846	4.594608	-33.849028	29.053738	147.714568	70.608967	-11.289277	20.453268	40.575519	-52.070890	1.224065	39.822019	38.178156	-5.029440	3.159213
6.766667	-0.185718	-1.166373	92.803195	0.159697	1.029585	0.065842	10.274826	-1.340033	-11.638609	27.957262	0.487946	21.841519	-9.170229	0.000000	5.580621	-2.905215	-14.032213	20.409941	0.356221	23.395972	18.019805	0.000000	-0.267119	0.656461	-0.799415	-0.496066	0.873093	-0.849379	-0.438849	1.596119	-0.849379	-0.305290	1.596119	-0.699489	-0.248046	1.338655	-0.649525	-0.152632	1.016858	-0.599562	-1.908002	7.426016	-4.446109	0.000000	0.000000	6.698573	-18.237000	39.389207	3.523731	-33.790911	28.238696	146.751445	70.163104	-11.476220	20.916702	39.182637	-50.668591	-2.258356	42.069547	44.129234	-5.049531	4.205482
6.783333	-0.094552	-1.371881	92.768682	0.159601	1.028777	0.066378	10.544541	-1.258347	-11.542316	27.891382	0.486796	22.396340	-8.621428	0.000000	5.792799	-2.957684	-13.951642	20.353070	0.355228	23.654824	18.017065	0.000000	-0.269588	0.651759	-0.717426	-0.500651	0.866839	-0.762265	-0.442905	1.584686	-0.762265	-0.308112	1.584686	-0.627748	-0.250339	1.329066	-0.582909	-0.154042	1.009574	-0.538069	-1.925637	7.372825	-3.990108	0.000000	0.000000	6.939911	-18.033404	38.563909	2.025626	-33.352790	27.041348	145.484475	70.122598	-11.445907	21.104044	37.513879	-49.120647	-5.853862	44.606513	49.781650	-5.216249	5.017432
6.800000	-0.024026	-1.579971	92.665195	0.159593	1.027844	0.066871	10.847630	-1.202003	-11.410584	27.886025	0.486703	23.087749	-7.910811	0.000000	6.029321	-3.001864	-13.973311	20.363226	0.355405	23.963645	18.016579	0.000000	-0.270456	0.642920	-0.617770	-0.502264	0.855084	-0.656380	-0.444332	1.563196	-0.656380	-0.309104	1.563196	-0.540548	-0.251145	1.311043	-0.501938	-0.154538	0.995883	-0.463327	-1.931839	7.272840	-3.435849	0.000000	0.000000	7.015402	-17.716231	37.646270	0.193210	-32.599240	25.506398	143.909740	70.635781	-11.336507	21.136868	35.626847	-47.512102	-9.191887	47.307343	54.837910	-5.432713	5.382496
6.816667	0.017925	-1.792801	92.508682	0.159644	1.026776	0.067308	11.191860	-1.186142	-11.267838	27.965975	0.488098	23.905913	-7.059183	0.000000	6.288018	-3.026552	-14.086510	20.429471	0.356562	24.316015	18.025782	0.000000	-0.269260	0.629193	-0.508150	-0.500043	0.836827	-0.539909	-0.442368	1.529820	-0.539909	-0.307738	1.529820	-0.444631	-0.250035	1.283051	-0.412872	-0.153855	0.974620	-0.381112	-1.923299	7.117560	-2.826177	0.000000	0.000000	6.926200	-17.277940	36.711857	-1.877882	-31.612278	23.728874	141.949688	71.639313	-11.099217	20.832967	33.500170	-45.850526	-12.261640	50.190705	59.458767	-5.772062	5.459077
6.833333	0.040090	-2.006367	92.301157	0.159730	1.025582	0.067712	11.580516	-1.203930	-11.122742	28.142984	0.491188	24.822940	-6.088256	0.000000	6.570404	-3.043096	-14.294469	20.560955	0.358856	24.720467	18.046395	0.000000	-0.266636	0.612424	-0.392698	-0.495170	0.814524	-0.417242	-0.438056	1.489049	-0.417242	-0.304738	1.489049	-0.343611	-0.247598	1.248856	-0.319067	-0.152356	0.948645	-0.294524	-1.904555	6.927867	-2.184069	0.000000	0.000000	6.694839	-16.739293	35.800343	-4.053591	-30.476542	21.811241	139.547149	73.054548	-10.700100	20.199349	31.151339	-44.157533	-14.958382	53.212968	63.791293	-6.255610	5.376028
6.850000	0.038032	-2.226332	92.077401	0.159874	1.024247	0.068111	12.016226	-1.253796	-10.976496	28.409082	0.495832	25.819850	-5.043693	0.000000	6.888836	-3.048124	-14.575480	20.753893	0.362224	25.180498	18.081717	0.000000	-0.261315	0.590791	-0.282839	-0.485289	0.785753	-0.300517	-0.429315	1.436450	-0.300517	-0.298657	1.436450	-0.247484	-0.242657	1.204742	-0.229807	-0.149316	0.915136	-0.212129	-1.866550	6.683151	-1.573067	0.000000	0.000000	6.343726	-16.111178	34.915501	-6.201401	-29.253339	19.885424	136.646868	74.755951	-10.155869	19.327054	28.645076	-42.486321	-17.156292	56.284947	67.785978	-6.821502	5.216668
6.866667	0.027370	-2.442009	91.813890	0.160094	1.022784	0.068563	12.497697	-1.312707	-10.811581	28.769603	0.502124	26.867383	-3.928013	0.000000	7.240222	-3.065917	-14.938783	21.026657	0.366984	25.716051	18.125908	0.000000	-0.256277	0.566621	-0.173948	-0.475933	0.753606	-0.184820	-0.421038	1.377682	-0.184820	-0.292900	1.377682	-0.152205	-0.237979	1.155453	-0.141333	-0.146437	0.877696	-0.130461	-1.830564	6.409728	-0.967449	0.000000	0.000000	5.900604	-15.434492	34.047475	-8.181519	-28.005557	18.031217	133.231798	76.653642	-9.472104	18.407680	26.082288	-40.861247	-18.710828	59.279151	71.301716	-7.421813	4.896539
6.883333	0.014811	-2.661888	91.554187	0.160348	1.021173	0.069100	13.024349	-1.380172	-10.664818	29.214392	0.509887	27.936549	-2.778011	0.000000	7.640053	-3.093961	-15.323133	21.370524	0.372986	26.332445	18.180586	0.000000	-0.250853	0.540227	-0.076872	-0.465859	0.718501	-0.081676	-0.412126	1.313507	-0.081676	-0.286700	1.313507	-0.067263	-0.232942	1.101630	-0.062458	-0.143337	0.836811	-0.057654	-1.791818	6.111152	-0.427537	0.000000	0.000000	5.396406	-14.725471	33.192554	-9.870944	-26.776416	16.367515	129.268670	78.605207	-8.726257	17.520608	23.556364	-39.325743	-19.540148	62.125818	74.217612	-8.018096	4.502186
6.900000	0.017196	-2.894878	91.318467	0.160581	1.019407	0.069773	13.594217	-1.446014	-10.567949	29.725646	0.518810	28.981739	-1.617990	0.000000	8.104710	-3.142482	-15.686240	21.782595	0.380178	27.029425	18.244546	0.000000	-0.245445	0.513922	0.005065	-0.455816	0.683516	0.005382	-0.403242	1.249549	0.005382	-0.280519	1.249549	0.004432	-0.227921	1.047989	0.004115	-0.140247	0.796064	0.003799	-1.753191	5.813583	0.028171	0.000000	0.000000	4.862990	-14.007542	32.359211	-11.203441	-25.620536	14.980956	124.766573	80.492232	-8.023267	16.674869	21.184273	-37.904719	-19.604884	64.767919	76.384750	-8.574573	4.076776
6.916667	0.087789	-3.147166	91.159054	0.160660	1.017479	0.070621	14.194089	-1.464945	-10.552391	30.264274	0.528211	29.924942	-0.528873	0.000000	8.668522	-3.251163	-15.949370	22.290241	0.389038	27.811634	18.308336	0.000000	-0.239154	0.494131	0.062988	-0.444134	0.657195	0.066925	-0.392907	1.201431	0.066925	-0.273330	1.201431	0.055114	-0.222079	1.007633	0.051178	-0.136653	0.765409	0.047241	-1.708256	5.589713	0.350320	0.000000	0.000000	4.308671	-13.298208	31.506999	-12.132968	-24.636501	14.012595	119.736120	82.167413	-7.503888	15.688369	19.047741	-36.602112	-18.984091	67.186934	77.529340	-9.043270	3.638822
6.933333	0.206169	-3.444031	91.038991	0.160573	1.015422	0.071640	14.831286	-1.462707	-10.639138	30.807556	0.537693	30.744392	0.533778	0.000000	9.308985	-3.398595	-16.159075	22.819130	0.398269	28.622763	18.375976	0.000000	-0.230948	0.479661	0.103990	-0.428894	0.637949	0.110490	-0.379425	1.166247	0.110490	-0.263951	1.166247	0.090991	-0.214459	0.978124	0.084492	-0.131964	0.742995	0.077993	-1.649641	5.426018	0.578362	0.000000	0.000000	3.813819	-12.608907	30.741554	-12.691309	-23.829578	13.425796	114.273867	83.585644	-7.122377	14.810145	17.111387	-35.330688	-18.309074	69.461019	78.328598	-9.447538	3.441656
6.950000	0.429350	-3.790295	91.010404	0.160217	1.013243	0.072837	15.490587	-1.376933	-10.799253	31.297954	0.546252	31.372662	1.414783	0.000000	10.060628	-3.628274	-16.257493	23.402125	0.408444	29.441960	18.430506	0.000000	-0.218165	0.476325	0.124219	-0.405155	0.633512	0.131983	-0.358424	1.158136	0.131983	-0.249341	1.158136	0.108692	-0.202588	0.971321	0.100928	-0.124660	0.737827	0.093164	-1.558334	5.388279	0.690869	0.000000	0.000000	3.373725	-11.948251	29.963769	-12.899653	-23.309066	13.389146	108.427624	84.847011	-7.005937	13.802235	15.507217	-34.085943	-17.521612	71.610125	78.371140	-9.791696	3.356726
6.966667	0.761477	-4.189268	91.061711	0.159588	1.010978	0.074225	16.175128	-1.212506	-11.045593	31.734046	0.553864	31.804375	2.151790	0.000000	10.908378	-3.948798	-16.290142	24.013685	0.419118	30.242650	18.488822	0.000000	-0.201391	0.484707	0.122660	-0.374002	0.644660	0.130326	-0.330865	1.178515	0.130326	-0.230169	1.178515	0.107328	-0.187011	0.988414	0.099661	-0.115075	0.750810	0.091995	-1.438513	5.483097	0.682198	0.000000	0.000000	3.023928	-11.297631	29.249810	-12.708300	-23.177923	14.104917	102.294407	85.933525	-7.096494	12.720005	14.290344	-32.873884	-16.725693	73.727109	77.658055	-10.080220	3.324776
6.983333	1.222857	-4.640650	91.264153	0.158581	1.008650	0.075808	16.865022	-0.952031	-11.391524	32.062444	0.559595	32.025138	2.649273	0.000000	11.865885	-4.359787	-16.174642	24.646234	0.430158	30.990676	18.521534	0.000000	-0.179287	0.506961	0.096964	-0.332953	0.674258	0.103024	-0.294550	1.232624	0.103024	-0.204907	1.232624	0.084844	-0.166486	1.033794	0.078783	-0.102444	0.785282	0.072723	-1.280626	5.734842	0.539286	0.000000	0.000000	2.818015	-10.705071	28.540817	-12.267334	-23.448508	15.492662	96.028187	86.848090	-7.502103	11.423772	13.575863	-31.601571	-16.109605	75.850110	76.720818	-10.276111	3.502274
7.000000	1.796098	-5.133158	91.576955	0.157267	1.006276	0.077606	17.563479	-0.602478	-11.782658	32.294987	0.563654	32.065362	2.927720	0.000000	12.909203	-4.856352	-15.971730	25.295957	0.441498	31.682878	18.543484	0.000000	-0.155043	0.540786	0.063131	-0.287931	0.719246	0.067076	-0.254720	1.314868	0.067076	-0.177199	1.314868	0.055239	-0.143973	1.102771	0.051294	-0.088592	0.837678	0.047348	-1.107458	6.117482	0.351113	0.000000	0.000000	2.794662	-10.184251	27.799544	-11.772377	-24.071177	17.273009	89.841180	87.563857	-7.874422	9.992093	13.462065	-30.241469	-15.582486	78.040448	76.013378	-10.516177	3.883267
